<svg xmlns="http://www.w3.org/2000/svg" viewBox="0 0 300 80" width="300" height="80">
  <defs>
    <linearGradient id="gr-gold" x1="0" y1="0" x2="0" y2="1">
      <stop offset="0%" stop-color="#FFE082"/>
      <stop offset="50%" stop-color="#FFD700"/>
      <stop offset="100%" stop-color="#B8860B"/>
    </linearGradient>
    <linearGradient id="gr-shine" x1="0" y1="0" x2="1" y2="1">
      <stop offset="0%" stop-color="#FFD700" stop-opacity="0.8"/>
      <stop offset="50%" stop-color="#FFF8E1" stop-opacity="0.3"/>
      <stop offset="100%" stop-color="#FFD700" stop-opacity="0.8"/>
    </linearGradient>
  </defs>
  <!-- Art deco border frame -->
  <rect x="2" y="2" width="296" height="76" rx="4" fill="none" stroke="url(#gr-gold)" stroke-width="2"/>
  <rect x="6" y="6" width="288" height="68" rx="2" fill="none" stroke="#FFD700" stroke-width="0.5" opacity="0.6"/>
  <!-- Art deco corner ornaments -->
  <path d="M12 12 L30 12 L30 16 L16 16 L16 30 L12 30 Z" fill="url(#gr-gold)" opacity="0.7"/>
  <path d="M288 12 L270 12 L270 16 L284 16 L284 30 L288 30 Z" fill="url(#gr-gold)" opacity="0.7"/>
  <path d="M12 68 L30 68 L30 64 L16 64 L16 50 L12 50 Z" fill="url(#gr-gold)" opacity="0.7"/>
  <path d="M288 68 L270 68 L270 64 L284 64 L284 50 L288 50 Z" fill="url(#gr-gold)" opacity="0.7"/>
  <!-- Film reel icon -->
  <circle cx="52" cy="40" r="18" fill="none" stroke="url(#gr-gold)" stroke-width="2"/>
  <circle cx="52" cy="40" r="5" fill="url(#gr-gold)"/>
  <circle cx="52" cy="40" r="12" fill="none" stroke="#FFD700" stroke-width="0.8" opacity="0.5"/>
  <!-- Reel spokes -->
  <line x1="52" y1="22" x2="52" y2="28" stroke="#FFD700" stroke-width="1.5"/>
  <line x1="52" y1="52" x2="52" y2="58" stroke="#FFD700" stroke-width="1.5"/>
  <line x1="34" y1="40" x2="40" y2="40" stroke="#FFD700" stroke-width="1.5"/>
  <line x1="64" y1="40" x2="70" y2="40" stroke="#FFD700" stroke-width="1.5"/>
  <line x1="39.3" y1="27.3" x2="43.5" y2="31.5" stroke="#FFD700" stroke-width="1.5"/>
  <line x1="60.5" y1="48.5" x2="64.7" y2="52.7" stroke="#FFD700" stroke-width="1.5"/>
  <!-- Art deco diamond accents -->
  <polygon points="80,40 84,36 88,40 84,44" fill="url(#gr-gold)" opacity="0.6"/>
  <polygon points="268,40 272,36 276,40 272,44" fill="url(#gr-gold)" opacity="0.6"/>
  <!-- Decorative lines -->
  <line x1="92" y1="40" x2="100" y2="40" stroke="#FFD700" stroke-width="1" opacity="0.5"/>
  <line x1="256" y1="40" x2="264" y2="40" stroke="#FFD700" stroke-width="1" opacity="0.5"/>
  <!-- Main text -->
  <text x="178" y="35" text-anchor="middle" font-family="Georgia, 'Times New Roman', serif" font-size="22" font-weight="bold" fill="url(#gr-gold)" letter-spacing="5">GOLDEN</text>
  <text x="178" y="56" text-anchor="middle" font-family="Georgia, 'Times New Roman', serif" font-size="16" fill="#FFD700" letter-spacing="8" opacity="0.85">REELS</text>
  <!-- Decorative underline -->
  <line x1="120" y1="62" x2="236" y2="62" stroke="url(#gr-gold)" stroke-width="0.8" opacity="0.4"/>
</svg>